<svg xmlns="http://www.w3.org/2000/svg" viewBox="-8488 3406 137.723 23.849">
  <defs>
    <style>
      .cls-1 {
        fill: #fff;
      }
    </style>
  </defs>
  <g id="Group_577" data-name="Group 577" transform="translate(-8488 3406)">
    <rect id="Rectangle_422" data-name="Rectangle 422" class="cls-1" width="70.028" height="23.849"/>
    <g id="Group_571" data-name="Group 571" transform="translate(6.394 5.563)">
      <path id="Path_635" data-name="Path 635" d="M10,21.743V8.7h4.668a6.6,6.6,0,0,1,1.918.256A4.666,4.666,0,0,1,18.5,9.979a3.628,3.628,0,0,1,.767,1.151,4.538,4.538,0,0,1,.32,1.854V17.4a4.538,4.538,0,0,1-.32,1.854A3.677,3.677,0,0,1,17.8,21.04a4.53,4.53,0,0,1-1.79.575,12.484,12.484,0,0,1-1.471.128H10Zm3.133-2.558H14.6a1.77,1.77,0,0,0,.575-.064,1.247,1.247,0,0,0,1.215-1.151,3.113,3.113,0,0,0,.064-.767V13.176a2.485,2.485,0,0,0-.128-.959,1.1,1.1,0,0,0-.831-.831c-.064.064-.256.064-.384.064H13.133Z" transform="translate(-10 -8.7)"/>
      <path id="Path_636" data-name="Path 636" d="M34.7,8.8h3.133v8.568a4.839,4.839,0,0,0,.064.959,1.086,1.086,0,0,0,.959.959,2.4,2.4,0,0,0,1.343,0,1.227,1.227,0,0,0,.959-1.023,4.221,4.221,0,0,0,.064-.9v-8.5h3.133v8.568a6.226,6.226,0,0,1-.128,1.535,3.167,3.167,0,0,1-.831,1.662,3.462,3.462,0,0,1-1.407.959,6.586,6.586,0,0,1-2.238.384,10.409,10.409,0,0,1-1.982-.192,4.52,4.52,0,0,1-1.662-.831,3.125,3.125,0,0,1-.9-1.151,3.038,3.038,0,0,1-.384-1.535c0-.384-.064-.7-.064-1.087V8.992A.235.235,0,0,1,34.7,8.8Z" transform="translate(-18.907 -8.736)"/>
      <path id="Path_637" data-name="Path 637" d="M61.264,8.8H64.4v4.412h0l.128-.128c.959-1.407,1.982-2.749,2.941-4.156.064-.128.128-.128.32-.128h3.133c-.128.128-.256.192-.32.32-1.151,1.535-2.238,3.069-3.389,4.6-.064.064-.064.128,0,.256.575,1.151,1.151,2.366,1.726,3.517.7,1.407,1.407,2.813,2.046,4.22,0,.064,0,.064.064.128H67.658c-.9-1.79-1.79-3.644-2.685-5.435a1.338,1.338,0,0,0-.256.384c-.128.192-.256.32-.384.512v4.54H61.2C61.264,17.432,61.264,13.148,61.264,8.8Z" transform="translate(-28.464 -8.736)"/>
      <path id="Path_638" data-name="Path 638" d="M94.348,8.8v2.685H89.3v2.3h3.772v2.749H89.233v2.685h5.051v2.621H86.1V8.864C88.913,8.8,91.535,8.8,94.348,8.8Z" transform="translate(-37.443 -8.736)"/>
    </g>
    <g id="Group_576" data-name="Group 576" transform="translate(69.629)">
      <g id="Group_572" data-name="Group 572">
        <rect id="Rectangle_423" data-name="Rectangle 423" width="67.455" height="23.21" transform="translate(0.32 0.32)"/>
        <path id="Path_639" data-name="Path 639" class="cls-1" d="M176.355.639V23.21H109.539V.639h66.816M176.994,0H108.9V23.849h68.094V0Z" transform="translate(-108.9)"/>
      </g>
      <g id="Group_575" data-name="Group 575" transform="translate(6.458 5.115)">
        <g id="Group_573" data-name="Group 573">
          <path id="Path_640" data-name="Path 640" class="cls-1" d="M120.982,13.343A1.9,1.9,0,0,1,119,11.425V8.1h1.279v3.389c0,.512.256.767.7.767s.7-.256.7-.767V8.1h1.279v3.389A1.814,1.814,0,0,1,120.982,13.343Z" transform="translate(-119 -8.036)"/>
          <path id="Path_641" data-name="Path 641" class="cls-1" d="M132.241,13.343l-1.662-2.621v2.621H129.3V8.1h1.151l1.662,2.621V8.1h1.279v5.243Z" transform="translate(-122.714 -8.036)"/>
          <path id="Path_642" data-name="Path 642" class="cls-1" d="M139.7,13.343V8.1h1.279v5.243Z" transform="translate(-126.465 -8.036)"/>
          <path id="Path_643" data-name="Path 643" class="cls-1" d="M147.685,13.343h-.959L145,8.1h1.343l.9,2.941.9-2.941h1.343Z" transform="translate(-128.376 -8.036)"/>
          <path id="Path_644" data-name="Path 644" class="cls-1" d="M155.2,13.343V8.1h3.581V9.251h-2.3v.9H158.4v1.087h-1.918v.9h2.3v1.151H155.2Z" transform="translate(-132.054 -8.036)"/>
          <path id="Path_645" data-name="Path 645" class="cls-1" d="M167.185,13.343l-.959-1.982h-.448v1.982H164.5V8.1h2.11a1.683,1.683,0,0,1,1.79,1.662,1.493,1.493,0,0,1-.831,1.343l1.151,2.174h-1.535Zm-.639-4.092h-.7v1.087h.7a.523.523,0,0,0,.575-.512A.571.571,0,0,0,166.546,9.251Z" transform="translate(-135.408 -8.036)"/>
          <path id="Path_646" data-name="Path 646" class="cls-1" d="M175.782,13.379a2.39,2.39,0,0,1-1.982-.7l.767-.767a1.785,1.785,0,0,0,1.151.384c.512,0,.767-.192.767-.448,0-.128,0-.256-.128-.32a.488.488,0,0,0-.32-.128l-.639-.064a1.53,1.53,0,0,1-1.023-.448,1.35,1.35,0,0,1-.384-1.023A1.691,1.691,0,0,1,175.91,8.2a2.369,2.369,0,0,1,1.79.639l-.831.831a1.377,1.377,0,0,0-1.023-.32c-.448,0-.639.256-.639.512a.255.255,0,0,0,.128.256.541.541,0,0,0,.384.128l.639.064a1.53,1.53,0,0,1,1.023.448,1.563,1.563,0,0,1,.384,1.151C177.764,12.8,176.869,13.379,175.782,13.379Z" transform="translate(-138.762 -8.072)"/>
          <path id="Path_647" data-name="Path 647" class="cls-1" d="M183.8,13.343V8.1h1.279v5.243Z" transform="translate(-142.368 -8.036)"/>
          <path id="Path_648" data-name="Path 648" class="cls-1" d="M191.958,9.251v4.092h-1.279V9.251H189.4V8.1h3.9V9.251Z" transform="translate(-144.387 -8.036)"/>
          <path id="Path_649" data-name="Path 649" class="cls-1" d="M201.077,11.133v2.11H199.8v-2.11L198.2,8h1.407l.831,1.918L201.269,8h1.407Z" transform="translate(-147.561 -8)"/>
        </g>
        <g id="Group_574" data-name="Group 574" transform="translate(0.128 8.312)">
          <path id="Path_650" data-name="Path 650" class="cls-1" d="M121.246,24.389h-.767v1.854H119.2V21h2.11a1.683,1.683,0,0,1,1.79,1.662A1.75,1.75,0,0,1,121.246,24.389Zm-.064-2.238h-.7v1.087h.7a.523.523,0,0,0,.575-.512A.571.571,0,0,0,121.182,22.151Z" transform="translate(-119.2 -21)"/>
          <path id="Path_651" data-name="Path 651" class="cls-1" d="M131.485,26.243l-.959-1.982h-.448v1.982H128.8V21h2.11a1.683,1.683,0,0,1,1.79,1.662,1.493,1.493,0,0,1-.831,1.343l1.151,2.174h-1.535Zm-.639-4.092h-.7v1.087h.7a.523.523,0,0,0,.575-.512A.618.618,0,0,0,130.846,22.151Z" transform="translate(-122.662 -21)"/>
          <path id="Path_652" data-name="Path 652" class="cls-1" d="M138.8,26.243V21h3.581v1.151h-2.3v.9H142V24.2h-1.918v.9h2.3v1.151H138.8Z" transform="translate(-126.268 -21)"/>
          <path id="Path_653" data-name="Path 653" class="cls-1" d="M149.382,26.343a2.39,2.39,0,0,1-1.982-.7l.831-.831a1.785,1.785,0,0,0,1.151.384c.512,0,.767-.192.767-.448,0-.128,0-.256-.128-.32a.488.488,0,0,0-.32-.128l-.639-.064a1.53,1.53,0,0,1-1.023-.448,1.35,1.35,0,0,1-.384-1.023,1.691,1.691,0,0,1,1.918-1.662,2.369,2.369,0,0,1,1.79.639l-.831.831a1.377,1.377,0,0,0-1.023-.32c-.448,0-.639.256-.639.512a.255.255,0,0,0,.128.256.541.541,0,0,0,.384.128l.639.064a1.53,1.53,0,0,1,1.023.448,1.563,1.563,0,0,1,.384,1.151C151.428,25.768,150.533,26.343,149.382,26.343Z" transform="translate(-129.369 -21.036)"/>
          <path id="Path_654" data-name="Path 654" class="cls-1" d="M158.682,26.343a2.39,2.39,0,0,1-1.982-.7l.831-.831a1.785,1.785,0,0,0,1.151.384c.512,0,.767-.192.767-.448,0-.128,0-.256-.128-.32A.488.488,0,0,0,159,24.3l-.639-.064a1.53,1.53,0,0,1-1.023-.448,1.35,1.35,0,0,1-.384-1.023,1.691,1.691,0,0,1,1.918-1.662,2.369,2.369,0,0,1,1.79.639l-.831.831a1.377,1.377,0,0,0-1.023-.32c-.448,0-.639.256-.639.512a.255.255,0,0,0,.128.256.541.541,0,0,0,.384.128l.639.064a1.53,1.53,0,0,1,1.023.448,1.563,1.563,0,0,1,.384,1.151C160.728,25.768,159.769,26.343,158.682,26.343Z" transform="translate(-132.723 -21.036)"/>
        </g>
      </g>
    </g>
  </g>
</svg>
