<svg xmlns="http://www.w3.org/2000/svg" viewBox="-8921 2184 124.529 64.516">
  <defs>
    <style>
      .cls-1 {
        fill: #fff;
      }
    </style>
  </defs>
  <g id="Group_744" data-name="Group 744" transform="translate(-1660 2306)">
    <rect id="Rectangle_540" data-name="Rectangle 540" width="94.306" height="32.301" transform="translate(-7261 -122)"/>
    <path id="Path_1004" data-name="Path 1004" class="cls-1" d="M10,26.366V8.7h6.322a8.939,8.939,0,0,1,2.6.346,6.32,6.32,0,0,1,2.6,1.386,4.914,4.914,0,0,1,1.039,1.559A6.146,6.146,0,0,1,22.99,14.5v5.975a6.146,6.146,0,0,1-.433,2.511,4.98,4.98,0,0,1-1.992,2.425,6.136,6.136,0,0,1-2.425.779,16.908,16.908,0,0,1-1.992.173H10ZM14.243,22.9h1.992a2.4,2.4,0,0,0,.779-.087,1.689,1.689,0,0,0,1.645-1.559,4.216,4.216,0,0,0,.087-1.039V14.762a3.366,3.366,0,0,0-.173-1.3,1.5,1.5,0,0,0-1.126-1.126c-.087.087-.346.087-.52.087H14.243Z" transform="translate(-7262.34 -123.166)"/>
    <path id="Path_1005" data-name="Path 1005" class="cls-1" d="M34.7,8.8h4.243V20.4a6.555,6.555,0,0,0,.087,1.3,1.47,1.47,0,0,0,1.3,1.3,3.247,3.247,0,0,0,1.819,0,1.662,1.662,0,0,0,1.3-1.386,5.717,5.717,0,0,0,.087-1.212V8.887h4.243v11.6a8.432,8.432,0,0,1-.173,2.078,4.289,4.289,0,0,1-1.126,2.252,4.689,4.689,0,0,1-1.905,1.3,8.92,8.92,0,0,1-3.031.52,14.1,14.1,0,0,1-2.685-.26,6.122,6.122,0,0,1-2.252-1.126A4.232,4.232,0,0,1,35.393,23.7a4.114,4.114,0,0,1-.52-2.078c0-.52-.087-.953-.087-1.472V9.06A.318.318,0,0,1,34.7,8.8Z" transform="translate(-7265.65 -123.179)"/>
    <path id="Path_1006" data-name="Path 1006" class="cls-1" d="M61.287,8.8H65.53v5.975h0L65.7,14.6c1.3-1.905,2.685-3.724,3.984-5.629.087-.173.173-.173.433-.173h4.243c-.173.173-.346.26-.433.433-1.559,2.078-3.031,4.157-4.59,6.235-.087.087-.087.173,0,.346.779,1.559,1.559,3.2,2.338,4.763.953,1.905,1.905,3.81,2.771,5.716,0,.087,0,.087.087.173h-4.59c-1.212-2.425-2.425-4.936-3.637-7.361a1.812,1.812,0,0,0-.346.52c-.173.26-.346.433-.52.693v6.149H61.2C61.287,20.491,61.287,14.689,61.287,8.8Z" transform="translate(-7269.201 -123.179)"/>
    <path id="Path_1007" data-name="Path 1007" class="cls-1" d="M97.271,8.8v3.637H90.43v3.118h5.109v3.724h-5.2v3.637h6.841v3.551H86.1V8.887C89.91,8.8,93.461,8.8,97.271,8.8Z" transform="translate(-7272.538 -123.179)"/>
    <rect id="Rectangle_541" data-name="Rectangle 541" class="cls-1" width="93.094" height="32.215" transform="translate(-7230.084 -90.132)"/>
    <path id="Path_1008" data-name="Path 1008" d="M128.381,37.166V68.515H36.066V37.166h92.315m.866-.866H35.2V69.381h93.96V36.3Z" transform="translate(-7265.717 -126.865)"/>
    <path id="Path_1009" data-name="Path 1009" d="M49.085,51.988a2.572,2.572,0,0,1-2.685-2.6V44.8h1.732v4.59c0,.693.346,1.039.953,1.039s.953-.346.953-1.039V44.8h1.732v4.59A2.572,2.572,0,0,1,49.085,51.988Z" transform="translate(-7267.218 -128.004)"/>
    <path id="Path_1010" data-name="Path 1010" d="M60.584,51.9l-2.252-3.551V51.9H56.6V44.8h1.559l2.252,3.551V44.8h1.732v7.1Z" transform="translate(-7268.585 -128.004)"/>
    <path id="Path_1011" data-name="Path 1011" d="M67.1,51.9V44.8h1.732v7.1Z" transform="translate(-7269.992 -128.004)"/>
    <path id="Path_1012" data-name="Path 1012" d="M76.037,51.9h-1.3L72.4,44.8h1.819l1.212,3.984L76.643,44.8h1.819Z" transform="translate(-7270.702 -128.004)"/>
    <path id="Path_1013" data-name="Path 1013" d="M82.5,51.9V44.8h4.85v1.559H84.232v1.212h2.6V49.13h-2.6v1.212H87.35V51.9Z" transform="translate(-7272.056 -128.004)"/>
    <path id="Path_1014" data-name="Path 1014" d="M95.551,51.9l-1.3-2.685h-.52V51.9H92V44.8h2.858a2.279,2.279,0,0,1,2.425,2.252,2.022,2.022,0,0,1-1.126,1.819l1.559,2.944H95.551Zm-.866-5.542h-.953v1.472h.953a.708.708,0,0,0,.779-.693A.773.773,0,0,0,94.685,46.359Z" transform="translate(-7273.329 -128.004)"/>
    <path id="Path_1015" data-name="Path 1015" d="M103.885,52a3.237,3.237,0,0,1-2.685-.953l1.126-1.126a2.418,2.418,0,0,0,1.559.52c.693,0,1.039-.26,1.039-.606,0-.173,0-.346-.173-.433a.661.661,0,0,0-.433-.173l-.866-.087a2.073,2.073,0,0,1-1.386-.606,1.828,1.828,0,0,1-.52-1.386c0-1.3.953-2.252,2.6-2.252a3.209,3.209,0,0,1,2.425.866l-1.212.953a1.866,1.866,0,0,0-1.386-.433c-.606,0-.866.346-.866.693a.346.346,0,0,0,.173.346.732.732,0,0,0,.52.173l.866.087a2.073,2.073,0,0,1,1.386.606,2.117,2.117,0,0,1,.52,1.559A2.411,2.411,0,0,1,103.885,52Z" transform="translate(-7274.562 -128.017)"/>
    <path id="Path_1016" data-name="Path 1016" d="M111.2,51.9V44.8h1.732v7.1Z" transform="translate(-7275.902 -128.004)"/>
    <path id="Path_1017" data-name="Path 1017" d="M120.264,46.359V51.9h-1.732V46.359H116.8V44.8h5.283v1.559Z" transform="translate(-7276.652 -128.004)"/>
    <path id="Path_1018" data-name="Path 1018" d="M129.5,48.957V51.9h-1.732V49.043L125.6,44.8h1.905l1.126,2.6,1.126-2.6h1.905Z" transform="translate(-7277.832 -128.004)"/>
    <path id="Path_1019" data-name="Path 1019" d="M49.371,62.29H48.332V64.8H46.6V57.7h2.858a2.279,2.279,0,0,1,2.425,2.252A2.425,2.425,0,0,1,49.371,62.29Zm-.087-3.031h-.953v1.472h.953a.708.708,0,0,0,.779-.693A.773.773,0,0,0,49.285,59.259Z" transform="translate(-7267.245 -129.732)"/>
    <path id="Path_1020" data-name="Path 1020" d="M59.837,64.8l-1.3-2.685h-.606V64.8H56.2V57.7h2.858a2.279,2.279,0,0,1,2.425,2.252,2.022,2.022,0,0,1-1.126,1.819l1.559,2.944H59.837Zm-.866-5.542h-.953v1.472h.953a.708.708,0,0,0,.779-.693A.837.837,0,0,0,58.971,59.259Z" transform="translate(-7268.531 -129.732)"/>
    <path id="Path_1021" data-name="Path 1021" d="M66.1,64.8V57.7h4.85v1.559H67.832v1.212h2.6V62.03h-2.6v1.212H70.95V64.8Z" transform="translate(-7269.858 -129.732)"/>
    <path id="Path_1022" data-name="Path 1022" d="M77.485,64.9a3.237,3.237,0,0,1-2.685-.953l1.126-1.126a2.418,2.418,0,0,0,1.559.52c.693,0,1.039-.26,1.039-.606,0-.173,0-.346-.173-.433a.661.661,0,0,0-.433-.173l-.866-.087a2.073,2.073,0,0,1-1.386-.606,1.828,1.828,0,0,1-.52-1.386c0-1.3.953-2.252,2.6-2.252a3.209,3.209,0,0,1,2.425.866l-1.126,1.126a1.866,1.866,0,0,0-1.386-.433c-.606,0-.866.346-.866.693a.346.346,0,0,0,.173.346.732.732,0,0,0,.52.173l.866.087a2.073,2.073,0,0,1,1.386.606,2.117,2.117,0,0,1,.52,1.559C80.256,64.122,79.043,64.9,77.485,64.9Z" transform="translate(-7271.024 -129.746)"/>
    <path id="Path_1023" data-name="Path 1023" d="M86.785,64.9a3.237,3.237,0,0,1-2.685-.953l1.126-1.126a2.418,2.418,0,0,0,1.559.52c.693,0,1.039-.26,1.039-.606,0-.173,0-.346-.173-.433a.661.661,0,0,0-.433-.173l-.866-.087a2.073,2.073,0,0,1-1.386-.606,1.828,1.828,0,0,1-.52-1.386c0-1.3.953-2.252,2.6-2.252a3.209,3.209,0,0,1,2.425.866l-1.126.953a1.866,1.866,0,0,0-1.386-.433c-.606,0-.866.346-.866.693a.346.346,0,0,0,.173.346.732.732,0,0,0,.52.173l.866.087a2.073,2.073,0,0,1,1.386.606,2.117,2.117,0,0,1,.52,1.559C89.556,64.122,88.257,64.9,86.785,64.9Z" transform="translate(-7272.271 -129.746)"/>
  </g>
</svg>
