<svg xmlns="http://www.w3.org/2000/svg" viewBox="-8176 3406 23.641 23.641">
  <defs>
    <style>
      .cls-1 {
        fill: #fff;
      }
    </style>
  </defs>
  <g id="menu_account" transform="translate(-8176 3406)">
    <g id="account-circle">
      <path id="Path_634" data-name="Path 634" class="cls-1" d="M11.82,0a11.82,11.82,0,1,0,11.82,11.82A11.855,11.855,0,0,0,11.82,0Zm0,3.546a3.483,3.483,0,0,1,3.546,3.546,3.483,3.483,0,0,1-3.546,3.546A3.483,3.483,0,0,1,8.274,7.092,3.483,3.483,0,0,1,11.82,3.546Zm0,16.785a8.624,8.624,0,0,1-7.092-3.782c0-2.364,4.728-3.664,7.092-3.664s7.092,1.3,7.092,3.664A8.624,8.624,0,0,1,11.82,20.331Z"/>
    </g>
  </g>
</svg>
